<?xml version="1.0" standalone="no"?>
<!DOCTYPE svg PUBLIC "-//W3C//DTD SVG 20010904//EN"
 "http://www.w3.org/TR/2001/REC-SVG-20010904/DTD/svg10.dtd">
<svg version="1.0" xmlns="http://www.w3.org/2000/svg"
 width="2000.000000pt" height="2256.000000pt" viewBox="0 0 2000.000000 2256.000000"
 preserveAspectRatio="xMidYMid meet">

<g transform="translate(0.000000,2256.000000) scale(0.100000,-0.100000)"
fill="#000000" stroke="none">
<path d="M9663 18179 c-375 -37 -700 -241 -925 -579 -64 -97 -168 -308 -213
-434 -138 -383 -203 -894 -175 -1361 22 -375 72 -652 167 -939 41 -124 73
-194 214 -466 55 -106 81 -225 86 -395 6 -176 -10 -298 -83 -629 -30 -136 -62
-293 -72 -349 l-17 -101 -54 -42 c-114 -90 -328 -184 -570 -250 -256 -70 -491
-112 -1126 -203 -745 -107 -1001 -166 -1240 -289 -130 -67 -209 -148 -258
-265 -434 -1038 -975 -5302 -801 -6316 l16 -93 -27 -59 c-99 -221 -143 -474
-152 -879 -19 -829 142 -1916 600 -4045 l104 -480 4856 -3 c4618 -2 4856 -1
4861 15 9 30 241 1119 300 1411 263 1291 387 2172 403 2867 11 496 -30 819
-141 1091 l-37 91 16 94 c68 419 25 1393 -116 2654 -188 1682 -477 3206 -698
3680 -126 269 -472 391 -1521 535 -957 132 -1366 240 -1645 438 l-70 49 -13
84 c-7 46 -35 183 -62 304 -88 395 -94 439 -94 645 -1 158 2 198 21 272 27
107 62 190 110 265 150 235 269 649 319 1116 23 207 23 611 1 813 -69 621
-248 1078 -544 1385 -183 189 -372 295 -635 356 -60 14 -131 17 -393 18 -176
1 -353 -2 -392 -6z m-2724 -9839 c18 -437 31 -1131 31 -1700 1 -689 17 -1844
29 -2039 10 -153 10 -155 -14 -195 -13 -23 -53 -105 -89 -182 -218 -475 -373
-991 -489 -1624 l-34 -185 -6 620 c-3 341 -10 681 -16 755 -16 189 -39 398
-58 510 l-15 95 36 115 c146 460 290 1261 410 2285 65 548 126 1199 161 1700
8 127 18 259 22 295 7 63 7 62 14 -55 4 -66 12 -244 18 -395z m6161 224 c121
-1726 352 -3358 572 -4034 l41 -125 -21 -140 c-53 -351 -63 -517 -69 -1220
l-6 -630 -32 182 c-119 665 -309 1273 -551 1754 l-53 106 10 149 c12 190 28
1362 29 2039 0 549 13 1279 30 1680 17 413 23 525 27 521 2 -2 13 -129 23
-282z"/>
</g>
</svg>
